<?xml version="1.0" encoding="UTF-8"?>
<svg version="1.1" xmlns="http://www.w3.org/2000/svg" width="227" height="216">
<path d="M0 0 C74.91 0 149.82 0 227 0 C227 63.36 227 126.72 227 192 C197.63 192 168.26 192 138 192 C138 195.96 138 199.92 138 204 C139.505625 204.0825 141.01125 204.165 142.5625 204.25 C153.22390336 205.22672211 163.41299274 208.29059292 173 213 C173 213.33 173 213.66 173 214 C154.36722988 215.71300358 135.89100033 216.32154586 117.19311523 216.26074219 C113.6452435 216.24933784 110.09767194 216.25612822 106.54981041 216.26764679 C88.95642761 216.31565552 71.52521494 215.68881092 54 214 C55.501286 210.99742801 57.9548016 210.80705697 60.98120117 209.79150391 C62.19706909 209.39970947 62.19706909 209.39970947 63.4375 209 C64.25774658 208.7323584 65.07799316 208.4647168 65.9230957 208.18896484 C73.95682941 205.61518135 81.51802852 203.63121863 90 204 C90 200.04 90 196.08 90 192 C60.3 192 30.6 192 0 192 C0 128.64 0 65.28 0 0 Z " fill="#E4E4E4" transform="translate(0,0)"/>
<path d="M0 0 C74.91 0 149.82 0 227 0 C227 63.36 227 126.72 227 192 C197.63 192 168.26 192 138 192 C138 195.96 138 199.92 138 204 C139.505625 204.0825 141.01125 204.165 142.5625 204.25 C153.22390336 205.22672211 163.41299274 208.29059292 173 213 C173 213.33 173 213.66 173 214 C154.36722988 215.71300358 135.89100033 216.32154586 117.19311523 216.26074219 C113.6452435 216.24933784 110.09767194 216.25612822 106.54981041 216.26764679 C88.95642761 216.31565552 71.52521494 215.68881092 54 214 C55.501286 210.99742801 57.9548016 210.80705697 60.98120117 209.79150391 C62.19706909 209.39970947 62.19706909 209.39970947 63.4375 209 C64.25774658 208.7323584 65.07799316 208.4647168 65.9230957 208.18896484 C73.95682941 205.61518135 81.51802852 203.63121863 90 204 C90 200.04 90 196.08 90 192 C60.3 192 30.6 192 0 192 C0 128.64 0 65.28 0 0 Z M10 10 C10 58.51 10 107.02 10 157 C77.98 157 145.96 157 216 157 C216 108.49 216 59.98 216 10 C148.02 10 80.04 10 10 10 Z " fill="#151515" transform="translate(0,0)"/>
<path d="M0 0 C1.18926646 -0.0061849 1.18926646 -0.0061849 2.40255851 -0.01249474 C5.03823847 -0.02136861 7.67290743 -0.00182595 10.30851746 0.01777649 C12.20628479 0.01726732 14.10405234 0.01500923 16.0018158 0.01113892 C21.13995174 0.00573136 26.27772552 0.02509752 31.41579652 0.04923987 C36.79422512 0.07056363 42.17265279 0.06994211 47.55111694 0.07192993 C56.5769218 0.07837158 65.60259083 0.09960039 74.62834167 0.13105774 C86.22123746 0.17140859 97.81404495 0.18875523 109.40700245 0.19836712 C119.37098076 0.20666104 129.3349403 0.22389638 139.29890227 0.24340463 C142.50448197 0.24947319 145.71006239 0.25461413 148.91564369 0.25975609 C153.94467625 0.26852756 158.97366493 0.28282496 164.00267029 0.30146599 C165.85101528 0.30759574 167.69936672 0.31204185 169.54771996 0.31470871 C172.0642446 0.31868119 174.58066955 0.32879037 177.09716797 0.34057617 C178.20230428 0.34029963 178.20230428 0.34029963 179.32976657 0.3400175 C182.40591438 0.36038327 184.78858462 0.50690044 187.73112488 1.48774719 C187.73112488 2.14774719 187.73112488 2.80774719 187.73112488 3.48774719 C188.72112488 3.81774719 189.71112488 4.14774719 190.73112488 4.48774719 C191.72112488 5.97274719 191.72112488 5.97274719 192.73112488 7.48774719 C193.72112488 8.47774719 193.72112488 8.47774719 194.73112488 9.48774719 C195.69715382 13.05566837 195.86499454 16.45460013 195.88934326 20.13821411 C195.90402649 21.82714783 195.90402649 21.82714783 195.91900635 23.55020142 C195.92476181 24.77587326 195.93051727 26.0015451 195.93644714 27.26435852 C195.94634674 28.56231354 195.95624634 29.86026855 195.96644592 31.19755554 C195.9934226 34.74877957 196.01447121 38.30001679 196.03444791 41.85128617 C196.05635224 45.5655546 196.08371913 49.2797827 196.11050415 52.99401855 C196.160371 60.02389946 196.20533206 67.05380282 196.24852651 74.08372754 C196.29795031 82.08855455 196.35284933 90.09334108 196.40820611 98.09812891 C196.5219339 114.56129767 196.62879289 131.02450357 196.73112488 147.48774719 C197.39112488 146.49774719 198.05112488 145.50774719 198.73112488 144.48774719 C197.99597705 150.36892985 195.37322124 156.64886343 190.73112488 160.48774719 C188.04362488 160.67524719 188.04362488 160.67524719 185.73112488 160.48774719 C185.73112488 160.15774719 185.73112488 159.82774719 185.73112488 159.48774719 C184.72560231 159.48351525 183.72007975 159.47928331 182.6840868 159.47492313 C158.23086616 159.37178369 133.77767534 159.26304217 109.32450581 159.14840794 C97.49919943 159.09310202 85.67389004 159.03962431 73.84855652 158.99043274 C63.54302788 158.94755871 53.23752123 158.90127254 42.93202657 158.85086864 C37.47408344 158.82429369 32.01614461 158.79944122 26.55817604 158.77867317 C21.42253974 158.75907776 16.28694516 158.73492522 11.15134621 158.70725632 C9.26514952 158.69790128 7.37894368 158.69022045 5.492733 158.68432808 C2.91954806 158.67604061 0.34646368 158.66175651 -2.22668457 158.64596558 C-2.97474623 158.64498747 -3.72280789 158.64400936 -4.49353808 158.64300162 C-8.2075313 158.61364977 -11.65678997 158.37407774 -15.26887512 157.48774719 C-15.69205221 155.46951803 -16.11522929 153.45128886 -16.53840637 151.43305969 C-17.19196351 149.1172817 -17.19196351 149.1172817 -20.26887512 147.48774719 C-20.92887512 147.48774719 -21.58887512 147.48774719 -22.26887512 147.48774719 C-22.29220368 130.2943575 -22.30985409 113.10097272 -22.32068729 95.90757084 C-22.32585034 87.92493219 -22.33289321 79.94230337 -22.34431458 71.95967102 C-22.35426114 65.00450921 -22.36072848 58.0493545 -22.36296362 51.09418577 C-22.36427077 47.40922792 -22.36735691 43.72429041 -22.37460518 40.03933907 C-22.38261852 35.93237011 -22.38286628 31.82543682 -22.38240051 27.71846008 C-22.38599579 26.48775787 -22.38959106 25.25705566 -22.39329529 23.98905945 C-22.39192062 22.87701645 -22.39054596 21.76497345 -22.38912964 20.61923218 C-22.39005143 19.64674058 -22.39097322 18.67424898 -22.39192295 17.67228794 C-22.26887512 15.48774719 -22.26887512 15.48774719 -21.26887512 14.48774719 C-21.59887512 13.82774719 -21.92887512 13.16774719 -22.26887512 12.48774719 C-21.33137512 10.36274719 -21.33137512 10.36274719 -20.26887512 8.48774719 C-19.60887512 8.48774719 -18.94887512 8.48774719 -18.26887512 8.48774719 C-18.01329415 7.87352471 -17.75771318 7.25930222 -17.49438733 6.62646693 C-14.01260174 0.55018021 -6.35505544 -0.09607193 0 0 Z M-15.26887512 7.48774719 C-15.26887512 55.99774719 -15.26887512 104.50774719 -15.26887512 154.48774719 C52.71112488 154.48774719 120.69112488 154.48774719 190.73112488 154.48774719 C190.73112488 105.97774719 190.73112488 57.46774719 190.73112488 7.48774719 C122.75112488 7.48774719 54.77112488 7.48774719 -15.26887512 7.48774719 Z " fill="#3B3B3B" transform="translate(25.268875122070313,2.5122528076171875)"/>
<path d="M0 0 C0.33 0 0.66 0 1 0 C1 48.51 1 97.02 1 147 C68.98 147 136.96 147 207 147 C207 98.49 207 49.98 207 0 C207.99 0 208.98 0 210 0 C212.41567804 6.62357631 212.30644749 13.00918521 212.31884766 20.00366211 C212.33391609 21.95103271 212.33391609 21.95103271 212.34928894 23.93774414 C212.37648345 27.48059267 212.39170685 31.02340166 212.40471697 34.56632686 C212.42039392 38.27526658 212.44716949 41.98412614 212.4727478 45.69300842 C212.51945503 52.70864816 212.556238 59.72430311 212.58942068 66.74001843 C212.62769914 74.73040486 212.67709423 82.72071061 212.72740483 90.71102893 C212.8306048 107.14062793 212.91990383 123.57027178 213 140 C213.66 139.01 214.32 138.02 215 137 C214.26485217 142.88118265 211.64209636 149.16111624 207 153 C204.3125 153.1875 204.3125 153.1875 202 153 C202 152.67 202 152.34 202 152 C200.99447743 151.99576806 199.98895487 151.99153612 198.95296192 151.98717594 C174.49974128 151.88403649 150.04655046 151.77529497 125.59338093 151.66066074 C113.76807455 151.60535482 101.94276516 151.55187711 90.11743164 151.50268555 C79.81190301 151.45981151 69.50639635 151.41352535 59.20090169 151.36312145 C53.74295856 151.3365465 48.28501973 151.31169402 42.82705116 151.29092598 C37.69141486 151.27133057 32.55582029 151.24717803 27.42022133 151.21950912 C25.53402464 151.21015409 23.64781881 151.20247326 21.76160812 151.19658089 C19.18842318 151.18829342 16.6153388 151.17400932 14.04219055 151.15821838 C13.29412889 151.15724028 12.54606723 151.15626217 11.77533704 151.15525442 C8.08092839 151.12605735 4.55663393 151.06207345 1 150 C-2.39657671 143.20684657 -1.17652935 133.23141192 -1.23706055 125.81176758 C-1.25672882 124.046185 -1.25672882 124.046185 -1.27679443 122.24493408 C-1.31835566 118.37816513 -1.35302123 114.51137623 -1.38671875 110.64453125 C-1.39931766 109.30199236 -1.41205786 107.9594548 -1.42493629 106.61691856 C-1.49229049 99.58408554 -1.55463427 92.55122742 -1.61254883 85.51831055 C-1.66633346 79.00403582 -1.73147619 72.48994132 -1.80188721 65.97582704 C-1.86216449 60.34916925 -1.91409285 54.72247229 -1.95981437 49.09567755 C-1.98714907 45.75015634 -2.01872102 42.40482292 -2.05682945 39.05939674 C-2.35360552 12.3643784 -2.35360552 12.3643784 0 0 Z " fill="#4A4A4A" transform="translate(9,10)"/>
<path d="M0 0 C0 0.33 0 0.66 0 1 C-18.63277012 2.71300358 -37.10899967 3.32154586 -55.80688477 3.26074219 C-59.3547565 3.24933784 -62.90232806 3.25612822 -66.45018959 3.26764679 C-84.04357239 3.31565552 -101.47478506 2.68881092 -119 1 C-117.28924707 -2.42150587 -113.76554566 -3.10649228 -110.30761719 -4.37963867 C-103.3159481 -6.63135232 -96.79831949 -5.98357108 -89.578125 -5.40234375 C-83.54867024 -4.91856512 -77.54658587 -4.86134363 -71.5 -4.875 C-70.42274658 -4.87741699 -69.34549316 -4.87983398 -68.2355957 -4.88232422 C-59.79861425 -4.93311583 -51.36948686 -5.14954053 -42.9375 -5.4375 C-41.77863281 -5.47665527 -40.61976563 -5.51581055 -39.42578125 -5.55615234 C-34.60381175 -5.740364 -29.85181414 -5.97687846 -25.06640625 -6.609375 C-16.30805056 -7.67035871 -7.71509234 -3.83806361 0 0 Z " fill="#232323" transform="translate(173,213)"/>
<path d="M0 0 C97.515 0.495 97.515 0.495 197 1 C195.60804085 3.7839183 193.84424221 3.97898997 191 5 C190.67 4.67 190.34 4.34 190 4 C187.38399547 3.87492518 184.79308066 3.81394595 182.17553711 3.79467773 C180.94636818 3.77982834 180.94636818 3.77982834 179.69236755 3.76467896 C176.97072283 3.73296945 174.24906061 3.70826938 171.52734375 3.68359375 C169.64546747 3.66303237 167.76359589 3.64203612 165.88172913 3.62062073 C160.91856689 3.56531574 155.9553624 3.51594377 150.99212646 3.46777344 C145.93156149 3.41761978 140.8710582 3.36190176 135.81054688 3.30664062 C125.87375055 3.19895605 115.93690077 3.09753411 106 3 C106 4.32 106 5.64 106 7 C112.06264222 6.33735914 112.06264222 6.33735914 118 5 C118 5.66 118 6.32 118 7 C120.31 7 122.62 7 125 7 C124.34 8.65 123.68 10.3 123 12 C116.18238106 12.0252689 109.36477411 12.04283244 102.54711914 12.05493164 C100.22582549 12.05997333 97.90453503 12.06680651 95.58325195 12.07543945 C92.25471205 12.08751225 88.92621398 12.09322979 85.59765625 12.09765625 C84.03048607 12.10539818 84.03048607 12.10539818 82.43165588 12.11329651 C81.47073532 12.11337204 80.50981476 12.11344757 79.51977539 12.11352539 C78.24403404 12.11685631 78.24403404 12.11685631 76.94252014 12.12025452 C75 12 75 12 74 11 C73.95919217 9.00041636 73.95745644 6.99954746 74 5 C75.98 5 77.96 5 80 5 C80 4.34 80 3.68 80 3 C78.65696053 3.01879211 78.65696053 3.01879211 77.28678894 3.03796387 C68.85537342 3.15590119 60.42395514 3.27363888 51.99253368 3.39115143 C47.65769994 3.45157504 43.32286731 3.51207628 38.98803711 3.57275391 C34.80593934 3.63129079 30.62383879 3.6896251 26.44173622 3.74781799 C24.84492199 3.77007305 23.24810878 3.79240153 21.65129662 3.81480408 C19.41751745 3.84613054 17.18373482 3.87719769 14.94995117 3.90820312 C13.67754074 3.92596802 12.40513031 3.94373291 11.09416199 3.96203613 C8.39569778 3.99514498 5.69859629 4 3 4 C3 3.34 3 2.68 3 2 C2.01 2 1.02 2 0 2 C0 1.34 0 0.68 0 0 Z " fill="#3B3B3B" transform="translate(14,160)"/>
<path d="M0 0 C0.77929265 -0.00085442 1.5585853 -0.00170885 2.36149287 -0.00258917 C4.97480357 -0.00423731 7.58805019 0.00126654 10.20135498 0.00672913 C12.07384235 0.00701117 13.94632983 0.00685293 15.81881714 0.00628662 C20.90520458 0.00599931 25.99156851 0.01188542 31.07795048 0.01886058 C36.39241988 0.02510506 41.7068898 0.02569878 47.0213623 0.02688599 C57.08645221 0.02999606 67.15153127 0.03820511 77.21661639 0.04823548 C88.67477264 0.05940663 100.13292939 0.06490959 111.59108973 0.06993091 C135.16268155 0.08038798 158.73426375 0.09798119 182.30584717 0.12025452 C182.30584717 1.11025452 182.30584717 2.10025452 182.30584717 3.12025452 C118.61584717 3.12025452 54.92584717 3.12025452 -10.69415283 3.12025452 C-11.02415283 2.46025452 -11.35415283 1.80025452 -11.69415283 1.12025452 C-7.84271088 -0.12834966 -4.00158052 -0.01601911 0 0 Z " fill="#535251" transform="translate(29.69415283203125,6.8797454833984375)"/>
<path d="M0 0 C0.33 0 0.66 0 1 0 C1 48.51 1 97.02 1 147 C68.98 147 136.96 147 207 147 C207 147.33 207 147.66 207 148 C138.69 148 70.38 148 0 148 C-1.12510251 136.74897488 -1.12510251 136.74897488 -1.17167664 132.22883606 C-1.18435577 131.20182587 -1.19703491 130.17481567 -1.21009827 129.11668396 C-1.21899582 128.02606155 -1.22789337 126.93543915 -1.23706055 125.81176758 C-1.25672882 124.046185 -1.25672882 124.046185 -1.27679443 122.24493408 C-1.31835566 118.37816513 -1.35302123 114.51137623 -1.38671875 110.64453125 C-1.39931766 109.30199236 -1.41205786 107.9594548 -1.42493629 106.61691856 C-1.49229049 99.58408554 -1.55463427 92.55122742 -1.61254883 85.51831055 C-1.66633346 79.00403582 -1.73147619 72.48994132 -1.80188721 65.97582704 C-1.86216449 60.34916925 -1.91409285 54.72247229 -1.95981437 49.09567755 C-1.98714907 45.75015634 -2.01872102 42.40482292 -2.05682945 39.05939674 C-2.35360552 12.3643784 -2.35360552 12.3643784 0 0 Z " fill="#7C706B" transform="translate(9,10)"/>
<path d="M0 0 C0.33 0 0.66 0 1 0 C0.92912957 0.78712718 0.85825914 1.57425436 0.78524113 2.38523388 C0.11887717 10.29026836 -0.13872504 18.11175849 -0.11352539 26.04223633 C-0.11367142 27.27308456 -0.11381744 28.5039328 -0.1139679 29.77207947 C-0.11339636 33.10180716 -0.10842999 36.43147051 -0.10139394 39.76118684 C-0.0950828 43.25783738 -0.09455053 46.75448905 -0.09336853 50.25114441 C-0.09027786 56.85225584 -0.08209543 63.45335044 -0.07201904 70.05445451 C-0.06078704 77.57818968 -0.0553297 85.10192572 -0.05032361 92.62566721 C-0.03991057 108.08378785 -0.02235561 123.54189174 0 139 C-3.42062602 135.57937398 -3.12515699 131.33638324 -3.13371277 126.69361877 C-3.13797775 125.64364716 -3.14224274 124.59367554 -3.14663696 123.5118866 C-3.14618378 122.37044693 -3.14573059 121.22900726 -3.14526367 120.05297852 C-3.14862228 118.84268982 -3.1519809 117.63240112 -3.15544128 116.38543701 C-3.16330445 113.07343316 -3.16661829 109.76149201 -3.16725707 106.44948316 C-3.1679689 104.37848407 -3.1701057 102.30749152 -3.17275429 100.23649406 C-3.18199852 93.00653543 -3.18609023 85.77659521 -3.18530273 78.54663086 C-3.18470184 71.81480322 -3.19525833 65.08305569 -3.2110464 58.35124832 C-3.22413339 52.56426129 -3.22948616 46.7773004 -3.22884732 40.99029869 C-3.22859272 37.53718524 -3.23142306 34.08414305 -3.24202538 30.63104439 C-3.25352909 26.77946989 -3.24895243 22.92800489 -3.24291992 19.07641602 C-3.24853943 17.93700058 -3.25415894 16.79758514 -3.25994873 15.62364197 C-3.21049277 3.21049277 -3.21049277 3.21049277 0 0 Z " fill="#464646" transform="translate(8,13)"/>
<path d="M0 0 C1.485 0.99 1.485 0.99 3 2 C3.37752342 4.22112179 3.37752342 4.22112179 3.38095093 7.04173279 C3.3894104 8.1087442 3.39786987 9.17575562 3.40658569 10.27510071 C3.39747665 12.03856087 3.39747665 12.03856087 3.38818359 13.83764648 C3.39344055 15.07182312 3.39869751 16.30599976 3.40411377 17.57757568 C3.41507858 20.96823885 3.41247557 24.35835504 3.40297651 27.74898791 C3.39539468 31.29369021 3.40242156 34.83836871 3.40713501 38.3830719 C3.41259761 44.33753671 3.40538856 50.29189 3.39111328 56.24633789 C3.37479319 63.13329433 3.38006842 70.01998425 3.3965925 76.9069342 C3.41020202 82.81527599 3.41212944 88.72353748 3.40427649 94.63188988 C3.39959603 98.16265707 3.39898508 101.69329898 3.40888596 105.22405815 C3.41915256 109.16046396 3.40492681 113.09657083 3.38818359 117.03295898 C3.39425629 118.20657486 3.40032898 119.38019073 3.40658569 120.58937073 C3.39812622 121.65920197 3.38966675 122.7290332 3.38095093 123.83128357 C3.37981985 124.76246222 3.37868877 125.69364088 3.37752342 126.65303707 C3 129 3 129 0 132 C0 88.44 0 44.88 0 0 Z " fill="#2E2E2E" transform="translate(221,17)"/>
<path d="M0 0 C0.33 0 0.66 0 1 0 C1 42.24 1 84.48 1 128 C0.34 128.33 -0.32 128.66 -1 129 C-1.9900857 126.02974289 -2.12794488 124.08878812 -2.13371277 120.98986816 C-2.14011024 119.43777397 -2.14011024 119.43777397 -2.14663696 117.85432434 C-2.14618378 116.71968246 -2.14573059 115.58504059 -2.14526367 114.41601562 C-2.14862228 113.22070724 -2.1519809 112.02539886 -2.15544128 110.79386902 C-2.16332002 107.51501431 -2.16661919 104.23619757 -2.16725707 100.95733452 C-2.16820648 98.22111755 -2.17188502 95.48490666 -2.17542917 92.74869204 C-2.18357176 86.29486057 -2.18601352 79.84104305 -2.18530273 73.38720703 C-2.18470152 66.72579773 -2.19526243 60.06446929 -2.2110464 53.40308046 C-2.2241114 47.68581908 -2.22948709 41.96858417 -2.22884732 36.25130796 C-2.22859209 32.83570736 -2.23145732 29.42017866 -2.24202538 26.0045929 C-2.25177827 22.19765426 -2.24896597 18.39092611 -2.24291992 14.58398438 C-2.24853943 13.4493425 -2.25415894 12.31470062 -2.25994873 11.14567566 C-2.25575424 10.1109462 -2.25155975 9.07621674 -2.24723816 8.01013184 C-2.24778293 7.10974937 -2.24832769 6.20936691 -2.24888897 5.28170013 C-2 3 -2 3 0 0 Z " fill="#212121" transform="translate(2,19)"/>
<path d="M0 0 C8.58 0 17.16 0 26 0 C26 1.32 26 2.64 26 4 C32.06264222 3.33735914 32.06264222 3.33735914 38 2 C38 2.66 38 3.32 38 4 C40.31 4 42.62 4 45 4 C44.34 5.65 43.68 7.3 43 9 C36.18238106 9.0252689 29.36477411 9.04283244 22.54711914 9.05493164 C20.22582549 9.05997333 17.90453503 9.06680651 15.58325195 9.07543945 C12.25471205 9.08751225 8.92621398 9.09322979 5.59765625 9.09765625 C4.03048607 9.10539818 4.03048607 9.10539818 2.43165588 9.11329651 C1.47073532 9.11337204 0.50981476 9.11344757 -0.48022461 9.11352539 C-1.33071884 9.115746 -2.18121307 9.11796661 -3.05747986 9.12025452 C-5 9 -5 9 -6 8 C-6.04080783 6.00041636 -6.04254356 3.99954746 -6 2 C-4.02 2 -2.04 2 0 2 C0 1.34 0 0.68 0 0 Z " fill="#2F2F2F" transform="translate(94,163)"/>
<path d="M0 0 C0.66 0.33 1.32 0.66 2 1 C1.01 1 0.02 1 -1 1 C-0.67 0.67 -0.34 0.34 0 0 Z M-4 2 C-3.01 2 -2.02 2 -1 2 C-1 2.99 -1 3.98 -1 5 C-1.99 5 -2.98 5 -4 5 C-4.12375 5.53625 -4.2475 6.0725 -4.375 6.625 C-5 9 -5 9 -6.02586365 11.37347412 C-7.46042519 16.71407614 -7.2523342 21.89376909 -7.21118164 27.39941406 C-7.2098674 28.64553467 -7.20855316 29.89165527 -7.2071991 31.17553711 C-7.20294112 33.87658963 -7.19506042 36.57733766 -7.18089485 39.27832794 C-7.15857378 43.54718368 -7.15053016 47.8159946 -7.14439392 52.0848999 C-7.13303125 58.83263561 -7.11231425 65.58030424 -7.08749622 72.32800269 C-7.04308687 84.42518272 -7.01000402 96.52238686 -6.98725218 108.61962676 C-6.97883416 112.86578208 -6.96479974 117.1118717 -6.94627964 121.35799456 C-6.93316893 124.61137405 -6.92626441 127.8647687 -6.91821289 131.11816406 C-6.91147552 132.29844177 -6.90473816 133.47871948 -6.89779663 134.69476318 C-6.89552315 136.30139832 -6.89552315 136.30139832 -6.89320374 137.94049072 C-6.88968431 138.87477024 -6.88616488 139.80904976 -6.8825388 140.77164078 C-7 143 -7 143 -8 145 C-8.66 145 -9.32 145 -10 145 C-10.02332856 127.80661031 -10.04097896 110.61322553 -10.05181217 93.41982365 C-10.05697522 85.437185 -10.06401809 77.45455617 -10.07543945 69.47192383 C-10.08538602 62.51676201 -10.09185336 55.56160731 -10.09408849 48.60643858 C-10.09539565 44.92148073 -10.09848179 41.23654322 -10.10573006 37.55159187 C-10.1137434 33.44462292 -10.11399116 29.33768963 -10.11352539 25.23071289 C-10.11712067 24.00001068 -10.12071594 22.76930847 -10.12442017 21.50131226 C-10.1230455 20.38926926 -10.12167084 19.27722626 -10.12025452 18.13148499 C-10.12117631 17.15899339 -10.1220981 16.18650179 -10.12304783 15.18454075 C-10 13 -10 13 -9 12 C-9.33 11.34 -9.66 10.68 -10 10 C-9.0625 7.875 -9.0625 7.875 -8 6 C-7.34 6 -6.68 6 -6 6 C-5.34 4.68 -4.68 3.36 -4 2 Z " fill="#303030" transform="translate(13,5)"/>
<path d="M0 0 C2.31 0.99 4.62 1.98 7 3 C7 3.33 7 3.66 7 4 C-11.63277012 5.71300358 -30.10899967 6.32154586 -48.80688477 6.26074219 C-52.3547565 6.24933784 -55.90232806 6.25612822 -59.45018959 6.26764679 C-77.04357239 6.31565552 -94.47478506 5.68881092 -112 4 C-111.67 3.34 -111.34 2.68 -111 2 C-96.73781909 1.90398325 -82.50031429 1.83068451 -68.25 2.5 C-50.32576417 3.31967974 -32.4321231 3.15589656 -14.5 2.625 C-13.28207764 2.59422363 -12.06415527 2.56344727 -10.80932617 2.53173828 C-9.68631104 2.49290527 -8.5632959 2.45407227 -7.40625 2.4140625 C-6.40916016 2.3826416 -5.41207031 2.3512207 -4.38476562 2.31884766 C-1.8163015 2.22107646 -1.8163015 2.22107646 0 0 Z " fill="#3D3D3D" transform="translate(166,210)"/>
<path d="M0 0 C63.69 0 127.38 0 193 0 C193.33 0.99 193.66 1.98 194 3 C129.65 2.67 65.3 2.34 -1 2 C-0.67 1.34 -0.34 0.68 0 0 Z M194 1 C194.66 1 195.32 1 196 1 C195.67 1.66 195.34 2.32 195 3 C194.67 2.34 194.34 1.68 194 1 Z " fill="#313131" transform="translate(17,3)"/>
<path d="M0 0 C1.11865471 -0.00128164 1.11865471 -0.00128164 2.2599085 -0.00258917 C4.7657699 -0.00423992 7.27156478 0.00127081 9.77742004 0.00672913 C11.57094318 0.00701111 13.36446643 0.00685304 15.1579895 0.00628662 C20.03369948 0.00599909 24.90938498 0.01188873 29.78508925 0.01886058 C34.87801601 0.02510142 39.9709433 0.0256985 45.06387329 0.02688599 C54.7110883 0.02999714 64.35829201 0.03820763 74.00550205 0.04823548 C84.9872233 0.0594033 95.96894508 0.06490875 106.9506706 0.06993091 C129.54372421 0.08039041 152.13676778 0.0979857 174.72981262 0.12025452 C174.72981262 0.45025452 174.72981262 0.78025452 174.72981262 1.12025452 C173.81521365 1.12356466 172.90061468 1.12687481 171.95830059 1.13028526 C149.72557711 1.2114316 127.49292237 1.30349641 105.26029491 1.4077816 C94.50885637 1.45794815 83.75742561 1.50439055 73.00593567 1.54212952 C63.63723 1.57502413 54.26858401 1.61484123 44.89994413 1.66304457 C39.93725762 1.68833478 34.97461084 1.71010857 30.01187706 1.72359848 C25.34404532 1.736396 20.6763496 1.75842527 16.00859261 1.78763771 C14.29249412 1.79673161 12.57637372 1.80240792 10.86025238 1.80446815 C8.52272729 1.80777795 6.18559088 1.8232201 3.84814453 1.84178162 C1.88334279 1.85007775 1.88334279 1.85007775 -0.12115192 1.85854149 C-3.43084977 1.87789306 -3.43084977 1.87789306 -6.27018738 4.12025452 C-8.45768738 3.74525452 -8.45768738 3.74525452 -10.27018738 3.12025452 C-10.27018738 2.46025452 -10.27018738 1.80025452 -10.27018738 1.12025452 C-6.77062325 -0.04626686 -3.63928438 -0.01515648 0 0 Z " fill="#454545" transform="translate(25.270187377929688,5.8797454833984375)"/>
<path d="M0 0 C-7.31104236 0.92064978 -14.5749222 1.313702 -21.9375 1.5625 C-23.15808105 1.6042334 -24.37866211 1.6459668 -25.63623047 1.68896484 C-44.12029496 2.27247158 -62.54890517 2.33496293 -81 1 C-78.71366728 -1.28633272 -78.04393531 -1.35329796 -74.9375 -1.6875 C-74.22464844 -1.77386719 -73.51179688 -1.86023438 -72.77734375 -1.94921875 C-69.70615903 -2.00537262 -66.75845188 -1.63802273 -63.71362305 -1.26928711 C-58.13929799 -0.71611747 -52.53398134 -0.61899142 -46.9375 -0.4375 C-45.06674805 -0.37272461 -45.06674805 -0.37272461 -43.15820312 -0.30664062 C-40.10555909 -0.20137704 -37.05284477 -0.09924059 -34 0 C-34 -0.66 -34 -1.32 -34 -2 C-30.70898498 -2.20029501 -27.41719893 -2.38280451 -24.125 -2.5625 C-23.2071875 -2.61857422 -22.289375 -2.67464844 -21.34375 -2.73242188 C-5.36458758 -3.57639172 -5.36458758 -3.57639172 0 0 Z " fill="#0C0C0C" transform="translate(152,207)"/>
<path d="M0 0 C7.20045687 0.64319626 14.40149614 0.92273101 21.625 1.1875 C22.81311279 1.23116699 24.00122559 1.27483398 25.2253418 1.31982422 C28.08766382 1.42349986 30.95003637 1.52532178 33.8125 1.625 C31.8125 3.625 31.8125 3.625 29.484375 3.86791992 C28.52015625 3.86381104 27.5559375 3.85970215 26.5625 3.85546875 C25.48661621 3.85417969 24.41073242 3.85289062 23.30224609 3.8515625 C22.15062988 3.83867187 20.99901367 3.82578125 19.8125 3.8125 C18.6467041 3.80605469 17.4809082 3.79960937 16.27978516 3.79296875 C6.76854849 3.70931901 -2.70197509 3.31129121 -12.1875 2.625 C-8.67530663 -0.88719337 -4.70150856 -0.49070752 0 0 Z " fill="#121212" transform="translate(83.1875,205.375)"/>
<path d="M0 0 C1.65 0 3.3 0 5 0 C3.68 0.33 2.36 0.66 1 1 C1 1.66 1 2.32 1 3 C2.32 3 3.64 3 5 3 C5.33 3.66 5.66 4.32 6 5 C6.94875 4.835 7.8975 4.67 8.875 4.5 C11.90772955 4.01476327 13.44935248 3.85509276 16.375 4.625 C19.36863138 5.05266163 20.48828873 4.58144783 23 3 C23.66 3.66 24.32 4.32 25 5 C27.60280568 4.67958603 27.60280568 4.67958603 30 4 C30 4.66 30 5.32 30 6 C31.918125 5.690625 31.918125 5.690625 33.875 5.375 C36.0546875 5.0234375 36.0546875 5.0234375 38 5 C38.66 5.66 39.32 6.32 40 7 C34.46411467 7.02464775 28.928261 7.04283496 23.39233398 7.05493164 C21.5075627 7.05997244 19.62279535 7.06680498 17.73803711 7.07543945 C15.03498364 7.08751617 12.33198169 7.09323068 9.62890625 7.09765625 C8.78099014 7.10281754 7.93307404 7.10797882 7.0594635 7.11329651 C5.03928932 7.11349195 3.01922066 7.06206211 1 7 C0 6 0 6 -0.0625 2.9375 C-0.041875 1.968125 -0.02125 0.99875 0 0 Z " fill="#242424" transform="translate(88,165)"/>
<path d="M0 0 C4.08934581 -0.02500541 8.17866105 -0.04300222 12.26806641 -0.05493164 C13.65479306 -0.05991293 15.04151459 -0.06670039 16.42822266 -0.07543945 C24.33835992 -0.12398542 32.14502199 -0.03835551 40 1 C40 1.33 40 1.66 40 2 C10.14130435 3.7826087 10.14130435 3.7826087 -1 2 C-0.67 1.34 -0.34 0.68 0 0 Z " fill="#333333" transform="translate(55,212)"/>
<path d="M0 0 C2.5 0.25 2.5 0.25 4.5 2.25 C4.8125 4.75 4.8125 4.75 4.5 7.25 C1.5 9.25 1.5 9.25 -1.125 8.9375 C-3.5 8.25 -3.5 8.25 -4.5 7.25 C-4.6875 4.8125 -4.6875 4.8125 -4.5 2.25 C-2.5 0.25 -2.5 0.25 0 0 Z " fill="#596A23" transform="translate(113.5,174.75)"/>
<path d="M0 0 C2.31 0.99 4.62 1.98 7 3 C7 3.33 7 3.66 7 4 C-5.35466853 5.70409221 -17.61711751 5.05386234 -30 4 C-30 3.67 -30 3.34 -30 3 C-29.16227051 2.98018066 -28.32454102 2.96036133 -27.46142578 2.93994141 C-24.35634166 2.86189388 -21.25165461 2.77520365 -18.14697266 2.68261719 C-16.14113029 2.62545964 -14.13501082 2.57831404 -12.12890625 2.53125 C-10.24365234 2.47324219 -10.24365234 2.47324219 -8.3203125 2.4140625 C-7.15773926 2.3826416 -5.99516602 2.3512207 -4.79736328 2.31884766 C-1.86343518 2.27842131 -1.86343518 2.27842131 0 0 Z " fill="#373737" transform="translate(166,210)"/>
<path d="M0 0 C0.33 0.66 0.66 1.32 1 2 C3.52733235 2.65555119 3.52733235 2.65555119 6 3 C5.67 3.99 5.34 4.98 5 6 C3.35 5.67 1.7 5.34 0 5 C0 4.34 0 3.68 0 3 C-1.32 3 -2.64 3 -4 3 C-4 2.34 -4 1.68 -4 1 C-2.68 0.67 -1.36 0.34 0 0 Z " fill="#3B3B3B" transform="translate(93,165)"/>
<path d="M0 0 C2.475 0.495 2.475 0.495 5 1 C4.67 2.32 4.34 3.64 4 5 C2.68 5 1.36 5 0 5 C0 3.35 0 1.7 0 0 Z " fill="#9ECD02" transform="translate(111,177)"/>
<path d="M0 0 C1.65 0 3.3 0 5 0 C3.68 0.33 2.36 0.66 1 1 C1 1.66 1 2.32 1 3 C2.32 3 3.64 3 5 3 C5 3.99 5 4.98 5 6 C3.35 6 1.7 6 0 6 C0 4.02 0 2.04 0 0 Z " fill="#2D2D2D" transform="translate(88,165)"/>
<path d="M0 0 C3.96 0.33 7.92 0.66 12 1 C7.81690543 4.13732093 7.64636429 4 3 4 C3 3.34 3 2.68 3 2 C2.01 2 1.02 2 0 2 C0 1.34 0 0.68 0 0 Z " fill="#353535" transform="translate(14,160)"/>
<path d="M0 0 C3.465 1.485 3.465 1.485 7 3 C7 3.33 7 3.66 7 4 C3.625 4.125 3.625 4.125 0 4 C-0.66 3.34 -1.32 2.68 -2 2 C-1.34 1.34 -0.68 0.68 0 0 Z " fill="#333333" transform="translate(166,210)"/>
<path d="M0 0 C2.31 0 4.62 0 7 0 C6.67 0.99 6.34 1.98 6 3 C4.02 3.33 2.04 3.66 0 4 C0.66 3.67 1.32 3.34 2 3 C1.34 2.67 0.68 2.34 0 2 C0 1.34 0 0.68 0 0 Z " fill="#393939" transform="translate(121,167)"/>
<path d="M0 0 C1.98 0 3.96 0 6 0 C5.67 1.32 5.34 2.64 5 4 C3.35 4 1.7 4 0 4 C0.66 3.67 1.32 3.34 2 3 C1.34 2.67 0.68 2.34 0 2 C0 1.34 0 0.68 0 0 Z " fill="#373737" transform="translate(133,167)"/>
<path d="M0 0 C-1 2 -1 2 -3.3125 3.3125 C-4.199375 3.539375 -5.08625 3.76625 -6 4 C-8.3125 2.625 -8.3125 2.625 -10 1 C-6.59437148 0.22157062 -3.49234244 -0.09978121 0 0 Z " fill="#333333" transform="translate(211,161)"/>
</svg>
